<svg id="Livello_1" data-name="Livello 1" xmlns="http://www.w3.org/2000/svg" viewBox="0 0 481.77 209.65"><defs><style>.cls-1{fill:#c44;}.cls-2{fill:#c4af7a;}.cls-3{fill:#e9d6a4;}.cls-4{fill:#81daef;}.cls-5{fill:#3e3e3e;}.cls-6{fill:#090909;}.cls-7{fill:#545656;}.cls-8{fill:#f8f8f8;}.cls-9{fill:#ffbc45;}.cls-10{fill:#050505;}.cls-11{fill:#070707;}</style></defs><path d="M274.72,83.51c8.25.09,14.35,1.66,19.3,6.36a23.88,23.88,0,0,1,6.88,12.88c2.18,10.7,5,21.23,7.59,31.84,3.41,14.13,7,28.22,10.35,42.36,2,8.25-.23,15.42-6.49,21.17-7.31,6.7-15.75,8.31-25,4.62-6.45-2.59-10.3-7.83-12.51-14.19-5.57-16.09-11-32.24-16.44-48.36-2.44-7.2-5-14.35-7.34-21.58-4-12.45-.2-24.47,12.69-31.81C267.72,84.57,271.82,83.3,274.72,83.51Zm-19.88,39.81,19.38,57.12c.13-1.18.28-2,.3-2.84,0-1.26.46-2,1.86-2a13,13,0,0,0,2.11-.38,2.19,2.19,0,0,0,1.42-3.7c-2.33-3-2.32-3,.22-5.88a1.1,1.1,0,0,1,1.46-.35c1,.45,2.06.85,3.1,1.26a1.93,1.93,0,0,0,2.56-1.86c-.05-1.11-.14-2.22-.25-3.33a.85.85,0,0,1,.7-1c1-.31,2.05-.64,3.05-1a1,1,0,0,1,1.31.43c.63.93,1.27,1.84,1.92,2.75a1.67,1.67,0,0,0,2.95-.12c.24-.42.46-.84.69-1.26,1.27-2.39,1.27-2.39,3.88-1.76a13.6,13.6,0,0,0,1.41.3c.7.09.91.49.91,1.15,0,1.08.05,2.15.12,3.23a1.63,1.63,0,0,0,2.51,1.44c.67-.35,1.32-.75,2-1.1,1.78-.95,1.5-1.17,2.95.41a14.55,14.55,0,0,0,1.36,1.36,1.19,1.19,0,0,1,.25,1.84c-.55.78-1,1.64-1.45,2.47a1.73,1.73,0,0,0,1.48,2.77c.59.06,1.19,0,1.79.11.8.09,1.09,0,.85-1q-7.56-30.69-15.05-61.39c-.27-1.1-.18-2.81-1-3.11s-2,.79-3.07,1.31a2.17,2.17,0,0,0-.3,3.63c.93.7,1.84,1.42,2.82,2a1.48,1.48,0,0,1,.63,2.19,22.72,22.72,0,0,0-1,2.79,1.12,1.12,0,0,1-1.47.94c-1.26-.21-2.54-.28-3.81-.39a1.19,1.19,0,0,0-1.19.37c-.86,1-1.63,2-.73,3.5.43.7.55,1.59.94,2.32a1.64,1.64,0,0,1-.74,2.48c-1,.62-1.83,1.92-2.93,2s-2.06-1.26-3-2.08a2.66,2.66,0,0,0-3.4-.62c-.82.41-1.39.8-1.46,1.8a19.36,19.36,0,0,1-.44,2.22c-.47,2.26-.47,2.26-2.81,2.41-2.86.19-2.86.19-3.76-2.49a3.86,3.86,0,0,1-.22-.68,2.87,2.87,0,0,0-2.91-2.69,2,2,0,0,0-2,.64c-.58.66-1.21,1.27-1.83,1.9-1.66,1.66-1.17,1.46-3.05.44-2.9-1.57-3-1.65-1.95-4.84a3.38,3.38,0,0,0-1.22-4.24,1.59,1.59,0,0,0-1.51-.39C257.79,122.65,256.35,123,254.84,123.32Zm20.81,1.1a14.88,14.88,0,1,0-14.75-15.06A14.9,14.9,0,0,0,275.65,124.42Zm20.78,43.06a13,13,0,1,0,12.94,12.94A13,13,0,0,0,296.43,167.48Zm-.85,35.07-1.32-3.85a2.51,2.51,0,0,0-3.94-.95c-.95.95-1.84,1.95-2.74,2.93A18.86,18.86,0,0,0,295.58,202.55Zm4.22-.28a15.85,15.85,0,0,0,7.74-3l-2.19-1.78-.83-.68a2.43,2.43,0,0,0-3.64,1.27A18.55,18.55,0,0,1,299.8,202.27ZM291.25,90.16A19.71,19.71,0,0,0,285,86.79c-.44-.15-.68-.07-.65.47.06,1.23.05,2.47.17,3.7a1.87,1.87,0,0,0,2.73,1.43C288.53,91.7,289.81,91,291.25,90.16Zm24.56,100c-1.25-.12-2.33-.18-3.39-.35a2,2,0,0,0-2.38,1.07,1.74,1.74,0,0,0-.22,1.75c.52,1.2.95,2.43,1.45,3.73A18.53,18.53,0,0,0,315.81,190.16ZM253,117.92c1-.92,1.95-1.76,2.85-2.66s.31-3.46-.79-3.91c-.92-.37-1.86-.7-2.79-1.06-.42-.16-.7-.12-.66.44A26.22,26.22,0,0,0,253,117.92Zm42.28-23.43c-.81,1.4-1.59,2.69-2.31,4a2,2,0,0,0,1.36,2.66c1.33.13,2.67.18,4.14.27A22,22,0,0,0,295.28,94.49Zm-43.07,9.62c1.39-.24,2.64-.42,3.87-.7.83-.18,1.94-2.49,1.5-3.15-.72-1.06-1.54-2-2.36-3.13A20.72,20.72,0,0,0,252.21,104.11Zm26.58,88.15a22.34,22.34,0,0,0,4.84,5.83,25.11,25.11,0,0,1,.8-3,2.32,2.32,0,0,0-.77-2.83,2,2,0,0,0-2.31-.58A24.35,24.35,0,0,1,278.79,192.26Zm-4.55-11.77c.79,2.33,1.52,4.41,2.2,6.51.19.61.43.41.73.13.61-.56,1.25-1.1,1.83-1.69s.3-3.08-.6-3.44C277.12,181.49,275.8,181.05,274.24,180.49Zm3.92-94.9a33.33,33.33,0,0,0-6.36.23c-.64.07-.77.26-.37.8.62.83,1.17,1.71,1.79,2.53a2,2,0,0,0,3.06-.1C276.91,88,277.49,86.83,278.16,85.59Zm39,99.79a16.89,16.89,0,0,0,.27-4.77c-.1-2-.11-2-1.89-1.14-.43.21-.87.4-1.28.63a1.93,1.93,0,0,0-.23,3C315.05,183.87,316.07,184.56,317.21,185.38ZM265.07,88.47a28.22,28.22,0,0,0-5.66,3.93c1.12.46,2.14.91,3.18,1.3a2.3,2.3,0,0,0,2.76-2.1C265.28,90.61,265.18,89.63,265.07,88.47Z"/><path d="M439.43,170.63V167c0-3.75,0-7.51,0-11.26,0-.76.15-1.06,1-1,1.24.07,2.48,0,3.72,0,.52,0,.74.15.69.68,0,.24,0,.48,0,.72,0,12.69,0,25.39,0,38.08,0,1.15-.35,1.42-1.39,1.33a17.31,17.31,0,0,0-2.88,0c-.78.06-.94-.25-.9-1,.06-1.07,0-2.14,0-3.48a12.89,12.89,0,0,1-11.27,4.74,14,14,0,0,1-10.26-4.7c-5.17-5.8-4.69-16,.87-21.23C424.16,165.08,434.29,164.52,439.43,170.63Zm-9.6.21c-5.75,0-9.84,4.14-9.87,10s4,10.34,9.71,10.37,9.82-4.2,9.84-10.21S435.56,170.86,429.83,170.84Z"/><path d="M332.85,191.13c0,1.41,0,2.56,0,3.71,0,.57-.15.75-.73.73-1.2,0-2.4,0-3.6,0-.66,0-.78-.22-.78-.82q0-19.59,0-39.18c0-.61.14-.85.79-.82,1.2.05,2.4.07,3.6,0,.82,0,1,.25,1,1,0,4.63,0,9.26,0,13.9,0,.25-.12.54.11.78,5.65-6.36,16-5.15,20.82,0,5.48,5.81,5.27,16.12-.31,21.53C348.59,196.93,338.19,197.76,332.85,191.13Zm19.74-9.8c0-4.09-1.39-7.27-4.85-9.25a10,10,0,0,0-12.8,2.56c-3,4.17-2.45,10.93,1.28,14.14A9.53,9.53,0,0,0,347,190.33C350.88,188.58,352.47,185.25,352.59,181.33Z"/><path d="M476.39,104.58c0-1.2,0-2.2,0-3.19,0-.7.23-.89.89-.87q1.8.06,3.6,0c.65,0,.91.13.91.85q0,13.77,0,27.55c0,.57-.15.77-.74.75-1.19,0-2.4,0-3.59,0-.62,0-.84-.16-.81-.8.05-1.11,0-2.23,0-3.63A12.78,12.78,0,0,1,465.74,130,14.18,14.18,0,0,1,455,125.22c-5-5.65-4.65-15.46.57-20.82C460.28,99.59,470.48,98.11,476.39,104.58Zm-9.72.35c-5.76,0-9.77,4.24-9.76,10.27,0,5.87,4.16,10.14,9.82,10.14s9.75-4.27,9.74-10.32S472.43,104.91,466.67,104.93Z"/><path d="M248.33,196.16c-9.59,0-17.41-5.37-19.76-13.69-3.67-13,4.47-24.27,16.9-25.54,6.19-.63,11.84.58,16.54,5,.73.69.79,1.1,0,1.73a15.57,15.57,0,0,0-2.06,2c-.57.68-.9.52-1.48,0-7-6.44-18.61-4.74-23.28,3.44-4.76,8.36-.66,20.53,11,22a14.46,14.46,0,0,0,12.34-3.89c.56-.53.83-.46,1.31.06a21.66,21.66,0,0,0,2.26,2.13c.69.55.6.92,0,1.49a18.86,18.86,0,0,1-11.68,5.2C249.68,196.11,248.88,196.13,248.33,196.16Z"/><path d="M377.17,195.92c-8.79-.28-14.93-6.69-14.69-15.36s6.85-14.72,15.74-14.44,14.94,6.77,14.62,15.78C392.55,190.17,385.81,196.2,377.17,195.92Zm.52-25.08c-5.77,0-9.81,4.2-9.81,10.19s4.13,10.22,9.84,10.22,9.72-4.26,9.72-10.3S383.43,170.83,377.69,170.84Z"/><path d="M421.88,104.73c4.14-5,11.43-5.29,15.74-3.58s6.58,5.3,6.75,9.85c.23,6,.08,12,.12,18,0,.63-.25.71-.78.69-1.2,0-2.4-.06-3.59,0-.79.05-1-.2-1-1,0-5.07,0-10.14,0-15.21a12.81,12.81,0,0,0-.32-3c-.92-3.85-4.16-5.92-8.48-5.46-5.25.56-8.2,3.82-8.24,9.19q0,7.19,0,14.37c0,.81-.15,1.13-1,1.07a30.71,30.71,0,0,0-3.59,0c-.59,0-.74-.17-.73-.74q0-13.79,0-27.55c0-.57.07-.89.76-.86,1.2,0,2.4,0,3.6,0,.59,0,.76.19.74.75C421.85,102.35,421.88,103.43,421.88,104.73Z"/><path d="M383.15,130c-7.78.34-14.18-4.39-15.58-12-1.75-9.41,4.3-16.75,12.91-17.67,4.34-.47,8.35.22,11.78,3.14.89.76,2,1.63,2.1,2.67s-1.56,1.26-2.34,2c-.23.21-.55.32-.79.53-.47.41-.74.29-1.12-.19a9.57,9.57,0,0,0-10.78-3.09,9.41,9.41,0,0,0-6.6,8.53c-.74,9.71,7.76,13,13.69,10.67a8.08,8.08,0,0,0,3.65-2.82c.39-.56.69-.59,1.23-.22.85.58,1.73,1.14,2.63,1.64.65.37.66.68.25,1.28a12.69,12.69,0,0,1-9.34,5.39C384.33,130,383.81,130,383.15,130Z"/><path d="M312.89,112.75V98.26c0-6.51,4-10.2,10.52-9.69a10.35,10.35,0,0,1,4.44,1.25c.5.28.71.6.39,1.13a1.66,1.66,0,0,0-.15.33c-.35.88-.46,2-1.1,2.59-.79.7-1.58-.5-2.44-.72-3.82-1-6.35.83-6.46,4.74-.08,2.64-.08,2.64,2.56,2.64,1.72,0,3.44,0,5.16,0,.61,0,.84.15.81.8-.06,1.15.38,2.65-.19,3.37s-2.16.19-3.3.23c-1.32,0-2.64.06-4,0-.78,0-1,.2-1,1,0,7.5,0,15,.05,22.51,0,1-.24,1.38-1.3,1.28a17,17,0,0,0-3.11,0c-.83.07-1-.26-1-1C312.9,123.36,312.89,118.06,312.89,112.75Z"/><path d="M331.61,112.68c0-4.75.11-9.5,0-14.24-.21-6.92,4.53-10.93,12-9.68,3.66.62,4.16,2,2.18,5.14-.36.57-.6.15-.85,0a6.64,6.64,0,0,0-4.72-.85A3.81,3.81,0,0,0,337,96.53c-.14,1.06-.08,2.15-.15,3.22-.05.66.24.8.84.79,2.28,0,4.55,0,6.83,0,.68,0,.91.18.87.87a22.94,22.94,0,0,0,0,2.75c0,.62-.17.82-.81.81-2.19,0-4.39,0-6.59,0-.85,0-1,.22-1,1,0,7.5,0,15,0,22.51,0,1-.25,1.3-1.24,1.2a13.11,13.11,0,0,0-2.87,0c-1.13.14-1.27-.33-1.26-1.32C331.63,123.14,331.61,117.91,331.61,112.68Z"/><path d="M400.24,172c0-5.39,0-10.77,0-16.16,0-.82.16-1.13,1-1.06a20.49,20.49,0,0,0,3.23,0c.93-.08,1.1.23,1.1,1.11,0,10,0,19.95,0,29.93v.84c0,3.61,2.31,5.47,5.84,4.56,1.29-.33,1.41.1,1.36,1.12a5.75,5.75,0,0,0,.07,1.55c.29,1.15-.12,1.61-1.28,1.8a12.62,12.62,0,0,1-5.8-.19,7.45,7.45,0,0,1-5.45-7.34c-.1-5.38,0-10.77,0-16.16Z"/><path d="M360,115c0,4.55,0,9.1,0,13.65,0,.74-.14,1-1,1a28.7,28.7,0,0,0-3.47,0c-.75.05-.93-.18-.92-.92,0-5.58,0-11.17,0-16.75,0-3.51,0-7,0-10.53,0-.71.13-1,.91-1a28.7,28.7,0,0,0,3.47,0c.81,0,1,.23,1,1C360,106,360,110.53,360,115Z"/><path d="M406.76,115.17c0,4.51,0,9,0,13.52,0,.78-.19,1-1,1a35.82,35.82,0,0,0-3.59,0c-.66,0-.78-.21-.78-.81q0-13.77,0-27.53c0-.62.16-.83.8-.81a33.07,33.07,0,0,0,3.59,0c.84-.06,1,.28.95,1C406.74,106.07,406.76,110.62,406.76,115.17Z"/><path d="M460,181c0,4.51,0,9,0,13.53,0,.82-.16,1.11-1,1.05a35.81,35.81,0,0,0-3.59,0c-.58,0-.73-.17-.73-.74q0-13.82,0-27.64c0-.71.3-.77.85-.76,1.2,0,2.4.06,3.59,0,.78,0,.91.23.91.94C460,171.91,460,176.46,460,181Z"/><path d="M357.34,95a3.37,3.37,0,0,1-3.65-3.41,3.62,3.62,0,0,1,7.23-.12A3.48,3.48,0,0,1,357.34,95Z"/><path d="M404,95a3.37,3.37,0,0,1-3.54-3.41,3.41,3.41,0,0,1,3.61-3.47,3.32,3.32,0,0,1,3.59,3.46A3.41,3.41,0,0,1,404,95Z"/><path d="M457.33,160.85a3.37,3.37,0,0,1-3.58-3.49,3.44,3.44,0,0,1,3.71-3.39,3.32,3.32,0,0,1,3.5,3.43A3.41,3.41,0,0,1,457.33,160.85Z"/><path class="cls-1" d="M150.76,207.24a83.56,83.56,0,0,1-15.7-1.6,58.06,58.06,0,0,1-28.7-14.4,77.64,77.64,0,0,0-37.6-19.1c-2.5-.5-5-.8-7-1-1.7-.2-2.4-1-2.6-1.6a2.72,2.72,0,0,1,.7-3c3.2-4.2,7.6-6.7,13.5-7.8a38.08,38.08,0,0,1,5.9-.5h.8c1.7,0,2.2-.7,2.5-1.4a2.48,2.48,0,0,0-.7-2.8l-.1-.1a77,77,0,0,0-20.2-14.7,109,109,0,0,0-34.8-10.7c-.4-.1-.8-.1-1.1-.2s-.6-.1-.9-.1a3.12,3.12,0,0,1-.8-6.1,115.68,115.68,0,0,1,16.3-5.5,46.81,46.81,0,0,1,10.5-1.6c1.1,0,2.2.1,3.3.2a3.58,3.58,0,0,1,2.4-.9,2.77,2.77,0,0,1,.9.1,130.13,130.13,0,0,0,17.1,1c4.4,0,9.1-.2,14.8-.5,9.1-.5,18.8-1.6,30.5-3.2,8.5-1.2,17.1-2.7,25.5-4.4a1.7,1.7,0,0,1,.7-.1,3.1,3.1,0,0,1,2.2.9c5.6,4.9,11.6,7.6,18.1,8.2,1.1.1,2.1.2,3.1.2,8.7,0,15.8-3.7,20.9-11.1.5-.7.9-1.3,1.4-2a40.15,40.15,0,0,1,5.1-6.6,12,12,0,0,1,2.1-1.7,4.83,4.83,0,0,1,2.1-.6c1.2,0,2.2.8,2.9,2.3a14.7,14.7,0,0,1,1,6.2v1.8a54.23,54.23,0,0,0,.8,11.5v.1a5.09,5.09,0,0,0,1.5,2.9,2.33,2.33,0,0,1,.7,2v.1a67.28,67.28,0,0,1-5.7,28.3,3.81,3.81,0,0,1-1.4,1.9,26.12,26.12,0,0,1,9.9,6.6c3.7,4.3,4.6,9.4,2.7,15.6s-5.7,11.5-9.4,16.2a82,82,0,0,1-5.7,6.4,3.11,3.11,0,0,1-2.3,1.1,3.27,3.27,0,0,1-2.6-1.5c-1.3-1.7-2.3-2-3.1-2a7.39,7.39,0,0,0-1.9.3,2.66,2.66,0,0,1-1.2.3,2.2,2.2,0,0,1-.8-.1h-.1l-.1-.1c-.4-.2-.7-.3-1.1-.5a12,12,0,0,1-2.3-1.1,2.05,2.05,0,0,1-.5,1.7l-.3.3a36,36,0,0,1-19.4,10.9A40.16,40.16,0,0,1,150.76,207.24Z"/><path class="cls-2" d="M99.16,89a3.19,3.19,0,0,1-1.4-.3A185.59,185.59,0,0,1,63.46,71a169.29,169.29,0,0,1-40.3-35.6A130.2,130.2,0,0,1,7,10a1.72,1.72,0,0,1-.1-1.9l.6-1.3,3.7,3a176.77,176.77,0,0,0,28.7,17.9c21.5,10.9,43.7,19.2,60.7,25.1a12.85,12.85,0,0,0,3.4.7,20.73,20.73,0,0,1,4,.9,197.56,197.56,0,0,0,28.3,7.8,1.84,1.84,0,0,1,1.4.9,2.19,2.19,0,0,1,0,1.6v.1c-.9,2.2-.5,3.4-2.5,4.6-8,5.9,6.4,30.6,9.5,37.6-.8.4-10.9,2.7-11.7,3.1C132,110.54,99.66,89,99.16,89Z"/><path class="cls-3" d="M52.66,108.44a3.58,3.58,0,0,1-2.5-1.1,22.66,22.66,0,0,0-2.8-2.1c-.9-.6-1.8-1.3-2.7-2-6.5-5.5-12.1-12.5-17.5-21.8-6.4-11.2-11.6-24-16.4-40.2a272.21,272.21,0,0,1-6.9-29.7v-.1A3.24,3.24,0,0,1,4.76,8l1.1-1.1.7,1.4a130,130,0,0,0,11.7,20.1,157.91,157.91,0,0,0,37.6,37.1,192.07,192.07,0,0,0,41.2,22.6l39,21.5-47.9,6c-1.6.7-23.9-1.3-25.5-.6C50.56,116.34,53.26,108.44,52.66,108.44Z"/><path class="cls-3" d="M137.76,62.74a1.27,1.27,0,0,1-.6-.1c-1.6-.4-3.3-.8-5-1.1-1.1-.2-2.1-.5-3.2-.7a218.41,218.41,0,0,1-22.3-6.5,2.22,2.22,0,0,1-1.7-1.8,8.11,8.11,0,0,0-1-2.1v-.2c-5.6-10.8-8.3-21.3-8.1-32.1a47.45,47.45,0,0,1,2-13.5l2.2.2a64.17,64.17,0,0,0,3.5,15c4,11,10.9,20.4,20.9,28.8a81.77,81.77,0,0,0,14.3,9.7h.1a1.93,1.93,0,0,1,1.3,1,1.51,1.51,0,0,1-.2,1.4.37.37,0,0,0-.1.3C139.46,61.74,139.06,62.74,137.76,62.74Z"/><path class="cls-2" d="M140.26,59.54a1.93,1.93,0,0,1-1-.3c-17.7-9.6-29.5-22.3-35.8-38.6a52.61,52.61,0,0,1-3.4-14.2,2.25,2.25,0,0,1,.2-1.8l.9-1.4,1.7,2.5c.8,1.1,1.5,2.2,2.2,3.3,9.2,14.7,21.4,28.2,37.2,41.2l.6.5c.8.6,1.6,1.3,2.4,1.9a1.84,1.84,0,0,1,.8,1.3,1.86,1.86,0,0,1-.8,1.4,28.19,28.19,0,0,0-3.6,3.3A1.54,1.54,0,0,1,140.26,59.54Z"/><path class="cls-4" d="M209.16,113.74c-2.4-6-.8-34.7,2.4-42.6l.9-2.3,1.1,2.2a8.6,8.6,0,0,1,.9,3.9,128.2,128.2,0,0,1-1.9,32.7,27.59,27.59,0,0,1-.8,2.7,3.55,3.55,0,0,1-.4.9,1.42,1.42,0,0,0-.2.6v.1a2.14,2.14,0,0,1-.1,1.9l-1.2,2Z"/><path class="cls-5" d="M214.06,66.84a.76.76,0,0,0-.8-.6.9.9,0,0,0-.5.1,2.63,2.63,0,0,0-1.6,1.5,11.11,11.11,0,0,0-1,2.9,17.23,17.23,0,0,1-.7,2.1h0a21.92,21.92,0,0,1-2.5,4.8,12.57,12.57,0,0,1-1.6,1.3l-.8.4a6.71,6.71,0,0,1-2.8.6,8.81,8.81,0,0,1-1.7-.2,14.4,14.4,0,0,1-4.2-2.3l-2.9-2.8a8.34,8.34,0,0,0-.8-1.2,56.67,56.67,0,0,1-4.5-6.4,31.28,31.28,0,0,0-12-11.4,29.27,29.27,0,0,0-14.5-4.2,25.31,25.31,0,0,0-12.5,3.4,1.85,1.85,0,0,1-.7.2h-.3c-.2,0-.3-.1-.5-.1a1.82,1.82,0,0,0-1.4.6,26.33,26.33,0,0,0-7.9,9.9,19.89,19.89,0,0,0-1.3,3.4l-2.3,1.2c-.2.1-.3.1-.5.2a172.66,172.66,0,0,1-25.2,15,541.86,541.86,0,0,1-53.7,23c-1,.4-1.5.6-1.7,1.1s.1,1,.7,2c1.9,3,2.1,3.2,5.6,3.5h.3c5.2.5,10.5.7,15.7.7,2.3,0,4.7,0,7-.1,7.5-.2,15.5-.9,24.4-1.9,9.7-1.1,19.5-2.5,29.2-4.3,2.4-.4,4.8-.9,7.2-1.4l3.6-.9a37.64,37.64,0,0,0,11.5,7.3,30.6,30.6,0,0,0,11.5,2.5,25.09,25.09,0,0,0,16.8-6.7A25.67,25.67,0,0,0,194,99l2.5-1.6c1.9-1.8,3.4-2.8,4.8-2.8a4.09,4.09,0,0,1,2.6,1.1l2,.9c-.2,5-.2,10.1-.1,15.1a16.68,16.68,0,0,0,1.2,6.2v.1c.1.2.2.7.8.7h0a3.79,3.79,0,0,0,3-2.2v-.1c.1-.2.2-.4,0-.6a.85.85,0,0,0-.6-.2h0c-.8-.1-1.2-.6-1.5-1.5a13.36,13.36,0,0,1-.7-3.9,136.59,136.59,0,0,1,2.5-36.6,22.51,22.51,0,0,1,1.6-4.4,2,2,0,0,1,1.5-1.2.91.91,0,0,0,.8-.4A1.12,1.12,0,0,1,214.06,66.84Zm-137.8,42.8a3.08,3.08,0,0,1-.2,1.6,2.83,2.83,0,0,1-1.1,1.5,3,3,0,0,1-1.6.5,2.77,2.77,0,0,1-2.3-1.3,5.07,5.07,0,0,1-.9-4.6,2.89,2.89,0,0,1,2.3-2.2h.4a3,3,0,0,1,2.5,1.4,3.84,3.84,0,0,1,.9,2.5h-.1Zm16.9-4.9v.6c0,2.6-1.2,4.4-3.1,4.7-.2,0-.4.1-.6.1-1.7,0-3.3-1.4-4.1-3.5a6.39,6.39,0,0,1,.1-4.9,3,3,0,0,1,.9-1.3,3.4,3.4,0,0,1,4.9.3,5.64,5.64,0,0,1,1.9,4Zm15.1-.2a5.55,5.55,0,0,1-.6.8,3.75,3.75,0,0,1-5.4.1,7.84,7.84,0,0,1-1.8-8.6,3.71,3.71,0,0,1,1.3-1.7,3.88,3.88,0,0,1,5.5.8,7.68,7.68,0,0,1,1.8,5A6.37,6.37,0,0,1,108.26,104.54Zm21.6-5.8-.6.9a5.5,5.5,0,0,1-4.3,2,5.88,5.88,0,0,1-3.6-1.3,9,9,0,0,1-2-11.3,5.39,5.39,0,0,1,1.4-1.6,5.88,5.88,0,0,1,3.6-1.3,6,6,0,0,1,4.5,2.1,9.13,9.13,0,0,1,2.3,6.5A9,9,0,0,1,129.86,98.74Zm61.3-9.7c-.6,10.2-5.2,17.3-13.8,21.1a20.82,20.82,0,0,1-8.8,1.9h0a25.09,25.09,0,0,1-11-2.7,33.07,33.07,0,0,1-18.4-33c1-10,7.5-18,16.7-20.4a24.75,24.75,0,0,1,2.9-.6,26.45,26.45,0,0,1,2.7-.2,28,28,0,0,1,19.9,8.8C188.26,71,191.66,79.64,191.16,89Z"/><path class="cls-6" d="M192.66,161.74h3.7c.7,0,1.3.2,1.3,1s-.6,1-1.2,1h-7.6c-.7,0-1.3-.3-1.3-1s.7-1,1.4-1Z"/><path class="cls-7" d="M124.86,100.44c-2,0-4.2-1.9-5.1-4.4-1.2-3.6.1-7.3,3-8.5l.8-.3-.4.7a8.68,8.68,0,0,0,3,11.7l.4.3-.5.2A2.66,2.66,0,0,1,124.86,100.44Z"/><path class="cls-7" d="M104.86,105.34a1.9,1.9,0,0,1-1.3-.5,6.16,6.16,0,0,1-2.4-3.8,5.8,5.8,0,0,1,.8-4.4c.4-.5.8-1,1.5-1h.1l.1.1.1.1.2.1-.1.2a8.85,8.85,0,0,0-.3,5.1,6.87,6.87,0,0,0,2.3,3.3l.3.3-.4.2A1.4,1.4,0,0,1,104.86,105.34Z"/><path class="cls-7" d="M89.86,108.84c-1.7,0-2.8-1-3.4-2.9a4.12,4.12,0,0,1,1.6-5.1l.6-.4-.2.7a10.27,10.27,0,0,0-.2,3.9,6,6,0,0,0,2,3.3l.6.5Z"/><path class="cls-7" d="M72.76,111.64l-.2.1-.1-.2a3.21,3.21,0,0,1-1.1-4.2c.2-.3.4-.5.6-.8l.5-.5-.1.7a12.93,12.93,0,0,0,.4,4.4l.4.2-.3.1.1.4Z"/><path class="cls-8" d="M103.46,95.94l.1-.1v.3C103.56,96,103.56,96,103.46,95.94Z"/><path class="cls-8" d="M72.76,111.34l.2.1-.2-.1Z"/><ellipse class="cls-9" cx="178.71" cy="131.35" rx="10.3" ry="4.1" transform="translate(26.33 292.5) rotate(-82.92)"/><ellipse class="cls-9" cx="199.87" cy="138" rx="9.2" ry="2.7" transform="matrix(0.31, -0.95, 0.95, 0.31, 6.71, 285.24)"/><path class="cls-4" d="M168.76,111.74a23.34,23.34,0,0,1-7.8-1.4c-10.7-3.7-17.6-11.6-20.7-23.4a29,29,0,0,1-.9-7.2c.1-7.5,2.5-13.6,7.2-18.1a20.78,20.78,0,0,1,14.7-6.2,24.26,24.26,0,0,1,7.8,1.4c11.2,3.8,18.3,11.9,21.2,24.3a27,27,0,0,1-1.8,17.9A21.66,21.66,0,0,1,168.76,111.74Z"/><path d="M177.66,142.34h-.3c-3.1-.4-4.1-6.3-3.4-11.6h0a21.51,21.51,0,0,1,2.2-7.4c1.2-2.1,2.6-3.2,4-3,3.1.4,4.1,6.3,3.4,11.6C182.86,137,180.56,142.34,177.66,142.34Zm-2.3-11.4c-.7,5.4.6,9.7,2.1,9.9s3.8-3.7,4.5-9.1-.6-9.7-2.1-9.9c-.7-.1-1.7.8-2.5,2.3a22,22,0,0,0-2,6.8Z"/><path d="M197.26,147.54a.9.9,0,0,1-.5-.1c-1.1-.3-1.6-1.7-1.5-3.9a21.93,21.93,0,0,1,1.3-6.6,23.12,23.12,0,0,1,2.9-6.1c1.3-1.8,2.5-2.6,3.5-2.2s1.6,1.7,1.5,3.9a21.93,21.93,0,0,1-1.3,6.6,23.12,23.12,0,0,1-2.9,6.1C199.26,146.74,198.16,147.54,197.26,147.54Zm5.2-17.6c-.2,0-.8.3-1.8,1.7a25.3,25.3,0,0,0-2.7,5.7h0a23.13,23.13,0,0,0-1.2,6.2c0,1.9.4,2.4.5,2.4s.8-.1,1.8-1.7a25.3,25.3,0,0,0,2.7-5.7,19.27,19.27,0,0,0,1.2-6.2c0-1.8-.4-2.3-.5-2.4Z"/><path class="cls-6" d="M161.46,54.64a28.42,28.42,0,0,1,20.3,8.9c6.9,7.1,10.5,15.6,10,25.5s-4.8,17.5-14.1,21.6c-6.8,3-13.7,2.4-20.3-.8a33.47,33.47,0,0,1-18.8-33.5c1-10.2,7.8-18.5,17.1-20.9a15,15,0,0,1,2.9-.6C159.66,54.74,160.66,54.64,161.46,54.64Zm-21,25.1a23.26,23.26,0,0,0,.8,6.9c2.9,10.9,9.2,18.8,20,22.6s21.4-.8,26.2-10.8a24.89,24.89,0,0,0,1.7-17.2c-2.7-11.4-9.2-19.7-20.5-23.5-7.9-2.7-15.3-1.3-21.4,4.6-4.9,4.8-6.8,10.8-6.8,17.4Z"/><path d="M175.46,98.94c-6.1-5.7-12.1-11.5-18.2-17.2l-4.1-3.9a.1.1,0,0,0-.1-.1.93.93,0,0,0-1.3.1l-.1.1a1,1,0,0,0,.2,1.4l.5.5,16.9,16,5.4,5.1a1.2,1.2,0,0,0,1.4.3.88.88,0,0,0,.5-1C176.46,99.74,175.86,99.44,175.46,98.94Z"/><path d="M179.56,85.64l-17.6-17c-.5-.5-1.1-.9-1.8-.2s-.2,1.2.4,1.7l11.3,10.8c2.2,2.1,4.3,4.2,6.5,6.2a1.24,1.24,0,0,0,1.4.4.87.87,0,0,0,.6-.9C180.26,86.24,179.86,85.94,179.56,85.64Z"/><path d="M168.06,85.94l3.6,3.5a1.09,1.09,0,0,0,1.3.3.8.8,0,0,0,.5-.9,1.1,1.1,0,0,0-.6-1l-8.5-8.2c-.5-.5-1.1-.9-1.7-.3s-.2,1.2.4,1.7Z"/><path class="cls-10" d="M100.86.14a7.63,7.63,0,0,1,4.1,3.4,190.29,190.29,0,0,0,15.8,21.9,204.47,204.47,0,0,0,26.6,25.2,1.21,1.21,0,0,0,1.4.2c10.8-4.8,21-3.1,30.7,3.1a34.64,34.64,0,0,1,9.5,8.8c1.5,2,2.8,4.3,4.3,6.4a26.06,26.06,0,0,0,5.2,5.8c3.2,2.6,5.3,2.1,6.9-1.7.7-1.8,1-3.7,1.9-5.5a14,14,0,0,1,1.5-3,5.66,5.66,0,0,1,6.2-2,3.75,3.75,0,0,1,2.8,3.5,4.48,4.48,0,0,1,0,2.3c-1.1,3-.3,6-.1,9a131.53,131.53,0,0,1-.7,20.8,53.76,53.76,0,0,1-2,12,10.2,10.2,0,0,0-.4,3.5c.2,3-.5,5.7-3.3,7.3-.5.3-.4.6-.4,1a68.08,68.08,0,0,1-5.6,27.8c-.3.7-.1.9.5,1.1a23.55,23.55,0,0,1,7.8,6.2c4.2,5.3,4.6,11.2,2.7,17.4s-5.3,11.2-9.1,16.1c-2.1,2.6-4.3,5.1-6.6,7.6a5.53,5.53,0,0,1-7.8.5,9,9,0,0,1-.9-1,1.71,1.71,0,0,0-2.4-.8h-.1a5.55,5.55,0,0,1-4.2-.2,1,1,0,0,0-1.3.3c-6.5,7-14.6,10.7-23.9,11.9a73.49,73.49,0,0,1-39-5.3,50.33,50.33,0,0,1-14.6-9.5,80.36,80.36,0,0,0-34.1-18.9,54.7,54.7,0,0,0-10.5-1.7,5.28,5.28,0,0,1-5.1-5.5,5.1,5.1,0,0,1,1.1-3.1,23.18,23.18,0,0,1,13.5-8.7,38.45,38.45,0,0,1,8.3-1,10,10,0,0,0-2-2.1c-9.5-8.8-20.8-14.5-33.1-18.3a127.43,127.43,0,0,0-20.2-4.3,5.65,5.65,0,0,1-1.5-10.8,100.85,100.85,0,0,1,23.3-7,34.19,34.19,0,0,1,4.5-.4c-.9-1.2-1.4-2.5-2.6-3.4-8.8-6-15.4-13.9-21-22.9-7-11.1-12-23.2-16.1-35.6A253.42,253.42,0,0,1,1,12.24c-.1-.4,0-1-.4-1.3V9.54c.4-.1.3-.4.3-.7a6,6,0,0,1,7.2-4.4,6.38,6.38,0,0,1,2.6,1.3c.4.4.9.7,1.3,1.1,9.3,7.5,19.6,13.5,30.3,18.9a451.27,451.27,0,0,0,57.1,23.6c.2.1.4.3.7,0-.2-.4-.3-.8-.5-1.2-6-13.1-8.3-26.7-5.4-41,.4-1.8.6-3.6,1.8-5.1a22.69,22.69,0,0,1,2.5-1.8h2.4Zm108.9,72.8a32.32,32.32,0,0,1-2.5,4.9,2,2,0,0,0-.3,1.1c-.3,3.3-.6,6.6-.8,9.9a216.91,216.91,0,0,0-.5,22.8,16.17,16.17,0,0,0,1.2,6.1c.1.2.1.6.5.6a3.18,3.18,0,0,0,2.7-2c.1-.3.4-.6-.3-.6A2.25,2.25,0,0,1,208,114a13.44,13.44,0,0,1-.7-4,137.8,137.8,0,0,1,2.5-36.8,19,19,0,0,1,1.5-4.2,2.43,2.43,0,0,1,1.7-1.4c.4-.1.7-.1.6-.6s-.6-.4-.9-.3a2,2,0,0,0-1.4,1.4C210.66,69.54,210.36,71.34,209.76,72.94ZM135,145.14v15.1a2.18,2.18,0,0,0,1.8,2.3,3.4,3.4,0,0,0,1-.1c3.2-.7,5.4.1,7.3,2.7s4,5.6,5.9,8.4a3.06,3.06,0,0,0,3.7,1.4,6.47,6.47,0,0,1,7.4,3c1.4,2,2.7,4,4.1,5.9a2.58,2.58,0,0,0,3.3,1.2l2.7-.6a7.21,7.21,0,0,1,7.6,2.6c1,1.2,1.9,2.5,2.9,3.7,1.1,1.5,2.9,1.9,4.5,2.6a1.45,1.45,0,0,0,1.1-.1c3-1,4.9-.4,6.7,2.1.9,1.2,1.7,1.3,2.8.2a83.93,83.93,0,0,0,5.6-6.3c3.9-4.8,7.4-9.8,9.2-15.7,1.6-5.1,1.3-10-2.4-14.3-2.8-3.3-6.6-5.1-10.5-6.7a39.34,39.34,0,0,0-11.2-2.4c-.7-.1-1.1-.4-1.1-1.1s.5-.9,1.2-.9a2,2,0,0,1,.8.1,60.54,60.54,0,0,1,9.6,2c1.6.5,1.7.5,2.3-1a64.22,64.22,0,0,0,5.6-27.7c0-.4.1-.8-.3-1.1a6.58,6.58,0,0,1-1.9-3.8c-1.1-4.5-.9-9.1-.9-13.7a13.46,13.46,0,0,0-.9-5.6c-.7-1.6-1.5-1.8-2.9-1a9,9,0,0,0-1.9,1.5c-2.6,2.5-4.3,5.5-6.3,8.4-6.2,8.8-14.7,12.6-25.4,11.6-7.3-.7-13.5-3.8-19-8.6a1.73,1.73,0,0,0-1.7-.4c-8.5,1.7-17,3.2-25.6,4.4-10.2,1.4-20.4,2.6-30.6,3.2-10.8.6-21.6.8-32.3-.5a2.08,2.08,0,0,0-2,.5,1.75,1.75,0,0,1-1.2.4c-4.5-.6-8.9.3-13.3,1.3a118.37,118.37,0,0,0-16.2,5.4,1.68,1.68,0,0,0-1.3,1.9c.1,1,.9,1.3,1.8,1.5l2,.3A109.56,109.56,0,0,1,62.26,138a79.21,79.21,0,0,1,20.5,14.9,3.86,3.86,0,0,1,1.1,4.4,3.72,3.72,0,0,1-3.8,2.3,33.46,33.46,0,0,0-6.3.5c-5.1.9-9.5,3.1-12.7,7.3-1,1.3-.6,2.2,1,2.3,2.4.3,4.8.6,7.1,1a81,81,0,0,1,38.3,19.5,57.12,57.12,0,0,0,27.9,14.1c9.1,1.7,18.1,2.4,27.2.4a33.64,33.64,0,0,0,18.7-10.6,1.06,1.06,0,0,0,.2-1.4c0-.1-.1-.1-.2-.2-1.1-1.4-2.2-2.8-3.3-4.1a5.07,5.07,0,0,0-3.2-1.9c-1.7-.4-3.2.3-4.8.7-2.6.6-4.2,0-5.7-2.2-1.4-2-2.7-4-4.1-6a4.51,4.51,0,0,0-5-2,5.33,5.33,0,0,1-6.1-2.4c-1.8-2.6-3.7-5.1-5.4-7.8-1.4-2.2-3.2-3.1-5.9-2.4a3.77,3.77,0,0,1-4.7-2.6,2.88,2.88,0,0,1-.1-1.3c0-5-.2-10,.1-15,.1-1.9-.8-2.1-1.9-2.7l-.4-.2a13.57,13.57,0,0,0-4.8-1.2,1,1,0,0,1-1.1-1c0-.7.5-1,1.2-1,.4,0,.9.1,1.3.1a19.87,19.87,0,0,1,12.1,7.1c.5.5.8,1.1.1,1.7s-1.2.2-1.7-.4A12.85,12.85,0,0,0,135,145.14ZM7.86,8.64c-.2.4,0,.6.1.9a127.82,127.82,0,0,0,16,25.2,168.73,168.73,0,0,0,40,35.4,190.58,190.58,0,0,0,34.2,17.6,2,2,0,0,0,2-.1c1.8-.9,3.6-1.7,5.4-2.6,9.4-4.7,18.7-9.7,27.2-15.9a9.51,9.51,0,0,0,3.8-4.6c.2-.7.4-1-.5-1.1a200.17,200.17,0,0,1-28.5-7.8c-2.4-.9-5-.8-7.4-1.6-20.7-7.3-41.2-15.1-60.9-25.2a179.11,179.11,0,0,1-28.9-18Zm-2.4.2a2.2,2.2,0,0,0-.5,2.5,302.29,302.29,0,0,0,6.9,29.6c4.1,13.9,9.1,27.4,16.3,39.9,4.7,8.1,10.1,15.5,17.3,21.6,1.8,1.5,3.8,2.7,5.5,4.2a2.4,2.4,0,0,0,2.9.4c12.4-4.7,24.7-9.6,36.8-15,2-.9,3.9-1.8,6-2.7a195,195,0,0,1-41.5-22.8c-14.6-10.5-27.5-22.7-37.9-37.4A132.55,132.55,0,0,1,5.46,8.84Zm128.7,61.7a.76.76,0,0,0-.4.2,173.69,173.69,0,0,1-25.3,15,552.2,552.2,0,0,1-53.7,23c-1.8.7-1.8.7-.8,2.3,1.9,3,1.9,2.9,5.4,3.3a170.62,170.62,0,0,0,22.6.6c8.2-.3,16.3-1,24.4-1.9q14.7-1.65,29.1-4.2c3-.5,6-1.1,9-1.7C135.36,96.44,131.46,84.44,134.16,70.54ZM98.86,5.14a45.26,45.26,0,0,0-2,13.1c-.2,11.2,2.8,21.6,8,31.5a11.51,11.51,0,0,1,1.2,2.5,1.07,1.07,0,0,0,1,1,214.29,214.29,0,0,0,22.1,6.4l8.2,1.8c1.1.3,1.1-.7,1.5-1.2s-.4-.6-.7-.8a85.75,85.75,0,0,1-14.5-9.8c-9.5-8-16.9-17.5-21.2-29.3A61.21,61.21,0,0,1,98.86,5.14Zm96.1,83a30.52,30.52,0,0,0-1.1-8.5c-.5-2-.8-4.2-2.2-5.9a57.53,57.53,0,0,1-4.6-6.4,32.5,32.5,0,0,0-11.8-11.2c-8.6-4.8-17.5-5.7-26.5-.8a2,2,0,0,1-1.5.3,1.42,1.42,0,0,0-1.4.4,25.44,25.44,0,0,0-7.8,9.7,31.61,31.61,0,0,0-2,21.2c3,12.5,10.2,21.9,22.2,26.9,9.9,4.1,19.5,3.2,27.7-4.2,6.5-5.6,8.8-13.1,9-21.5Zm-93.7-82.8a1,1,0,0,0-.1.9,52.11,52.11,0,0,0,3.4,14c6.8,17.3,19.3,29.3,35.3,38,.5.3.8.1,1.1-.3a19.94,19.94,0,0,1,3.7-3.4c.5-.4.5-.6,0-1l-3-2.4c-14.6-12-27.4-25.5-37.5-41.5C103.16,8.24,102.16,6.84,101.26,5.34Zm109,108c.3-.7-.2-1.2-.1-1.7s.5-1.1.6-1.7a23.35,23.35,0,0,0,.7-2.5,131,131,0,0,0,1.9-32.5,6.72,6.72,0,0,0-.7-3.4c-3.2,8-4.7,36.4-2.4,41.8ZM204,95.24c.2-5.1.5-10.2.9-15.4a6.42,6.42,0,0,1-4.9.4,18.46,18.46,0,0,1-4.4-2.3,43.6,43.6,0,0,1,1.4,9.5,35,35,0,0,1-1.1,9.6c3.4-3.1,5.3-4,8.1-1.8Z"/><path class="cls-11" d="M131.66,94.64a8.21,8.21,0,0,1-1.2,4.3,6.2,6.2,0,0,1-9.4,1.6,9.66,9.66,0,0,1-2.2-12,6.25,6.25,0,0,1,8.5-2.4,6.55,6.55,0,0,1,1.8,1.5A10.23,10.23,0,0,1,131.66,94.64Zm-8.5-2.6a7.41,7.41,0,0,0,3.6,6.6,1.22,1.22,0,0,0,1.6-.1c.1-.1.1-.2.2-.3a7.18,7.18,0,0,0,.1-7.6c-.7-1.3-1.7-2.7-3.3-2.7C124.26,87.74,123.16,90.14,123.16,92Zm-.3-4.3c-2.8,1.2-4,4.7-2.8,8.1,1,3,3.9,5,5.9,4A9,9,0,0,1,122.86,87.74Z"/><path class="cls-6" d="M109.76,101a7.46,7.46,0,0,1-1,3.8,4.32,4.32,0,0,1-5.9,1.7,5.5,5.5,0,0,1-.9-.7,8.14,8.14,0,0,1-1.9-9.2,4.57,4.57,0,0,1,5.9-2.5,4.26,4.26,0,0,1,2,1.5A9.21,9.21,0,0,1,109.76,101Zm-6.3-5a1.76,1.76,0,0,0-1.3.9c-1.7,2.2-.8,6.4,1.5,7.8a2,2,0,0,0,2.1.2,8.14,8.14,0,0,1-2.4-3.4,9.54,9.54,0,0,1,.3-5.3v-.3Zm4.3,5.1a5.74,5.74,0,0,0-1.8-4.5c-.2-.2-.5-.7-.7.1a6.21,6.21,0,0,0,0,5c.4.9,1.1,2.1,1.9,1.9s.5-1.6.6-2.5Z"/><path class="cls-11" d="M93.76,105.34c0,2.8-1.4,4.9-3.5,5.3s-4.3-1.1-5.3-3.8a7,7,0,0,1,.1-5.3,4,4,0,0,1,5.2-2.3,3.27,3.27,0,0,1,1.5,1.1A6.86,6.86,0,0,1,93.76,105.34Zm-2.6,2.1a5.2,5.2,0,0,0-.8-5.7c-.5-.5-.7-.5-.9.2A4.84,4.84,0,0,0,91.16,107.44Zm-1.2,1.1a6.06,6.06,0,0,1-2.1-3.5,10.8,10.8,0,0,1,.2-4,3.81,3.81,0,0,0-1.4,4.8Q87.56,108.69,90,108.54Z"/><path class="cls-11" d="M76.86,109.54a2.89,2.89,0,0,1-.3,1.8,3.37,3.37,0,0,1-6,1,5.49,5.49,0,0,1-1-5.1,3.29,3.29,0,0,1,2.8-2.6,3.38,3.38,0,0,1,3.4,1.6A4.17,4.17,0,0,1,76.86,109.54Zm-4,1.8v.2H73l-.1-.2a11.66,11.66,0,0,1-.5-4.6,3,3,0,0,0-.2,4.1,4.23,4.23,0,0,0,.7.5Zm.6-4.7a6.42,6.42,0,0,0,.7,4.7,3.14,3.14,0,0,0-.3-4.4,1.38,1.38,0,0,1-.4-.3Z"/></svg>